<svg width="324" height="336" viewBox="0 0 324 336" fill="none" xmlns="http://www.w3.org/2000/svg">
<path d="M265.172 205.708V41.0803C265.231 36.4204 261.565 32.5577 257.012 32.4964C257.012 32.4964 257.012 32.4964 256.953 32.4964H33.8782C29.3256 32.5577 25.6599 36.3591 25.6599 41.019C25.6599 41.019 25.6599 41.019 25.6599 41.0803V205.708H265.172Z" fill="black"/>
<path d="M190.675 38.5664H256.894C258.195 38.5664 259.259 39.6701 259.259 41.019V197.369H190.675V38.5664Z" fill="#5AA9E6"/>
<path d="M214.325 38.5664H146.332V197.369H214.325V38.5664Z" fill="#7FC8F8"/>
<path d="M168.208 38.5664H100.215V197.369H168.208V38.5664Z" fill="#F9F9F9"/>
<path d="M123.274 38.5664H54.6897V197.369H123.274V38.5664Z" fill="#FFE45E"/>
<path d="M33.9963 38.5664H77.7481V197.369H31.6313V41.019C31.6313 39.6701 32.6956 38.5664 33.9963 38.5664Z" fill="#FF6392"/>
<path d="M4.43433 203.562H288.23C288.23 206.934 285.569 209.693 282.318 209.693H10.3467C7.09491 209.693 4.43433 206.934 4.43433 203.562Z" fill="black"/>
</svg>
